<?xml version="1.0" encoding="utf-8"?>
<svg xmlns="http://www.w3.org/2000/svg" xml:space="preserve" viewBox="0 0 100 100">
  <path d="M92.3 32.2H48.9c-4.3 0-7.7 3.5-7.7 7.7v27.2c0 4.3 3.5 7.7 7.7 7.7h31.9c.5 0 1 .2 1.4.6.3.4.5.9.4 1.4-.6 3.7-1.4 7.4-2.5 11 6.2-4.3 16-11.5 18.4-16.1 0-.1.1-.2.2-.3.9-1.3 1.4-2.8 1.4-4.4V39.9c-.1-4.2-3.6-7.7-7.8-7.7zM82.1 68.8c-.2.1-.4.1-.7.1-.7 0-1.4-.4-1.7-1.1L76.6 60H64.7l-3.1 7.8c-.3.7-.9 1.1-1.7 1.1-.2 0-.5 0-.7-.1-.9-.4-1.4-1.4-1-2.3L69 39.6c.1-.1.2-.3.3-.4l.1-.2.1-.1c.1-.1.3-.2.5-.3h.2c.2 0 .3-.1.5-.1h.7c.1.1.3.2.4.3.1 0 .1.1.2.1v.2c.1.1.2.3.3.4l10.8 26.9c.4 1-.1 2-1 2.4z"/>
  <path d="M66.1 56.3h9L70.6 45zM22.3 26.8c.7 0 1.2-.2 1.6-.6.4-.4.6-.9.6-1.5s-.2-1.1-.6-1.5c-.4-.4-.9-.6-1.6-.6-.6 0-1.1.2-1.5.6-.4.4-.6.9-.6 1.5s.2 1.1.6 1.5c.3.4.8.6 1.5.6z"/>
  <path d="M58.8 28.6V7.7c0-4.3-3.5-7.7-7.7-7.7H7.7C3.5 0 0 3.5 0 7.7v27.1c0 1.6.5 3.1 1.4 4.4.1.1.1.2.2.4C4 44.2 13.8 51.4 20 55.6c-1-3.6-1.9-7.3-2.5-11-.1-.5.1-1.1.4-1.4.3-.4.8-.6 1.4-.6h12l6.4-.1v-2.6c0-1.2.2-2.4.6-3.6 0 0 .5-1.3 1.2-2.5l-.5.5c-1.1 1-2.5 1.9-4.1 2.5-1.6.6-3.4.9-5.4.9-2 0-3.8-.3-5.4-.9-1.6-.6-3-1.4-4.1-2.5-1.1-1-2-2.3-2.6-3.7-.6-1.4-.9-3-.9-4.7 0-1.1.2-2 .5-2.8.3-.8.7-1.5 1.2-2.1.5-.6 1.1-1 1.9-1.3.7-.3 1.5-.5 2.3-.5h.2c.9 0 1.7.1 2.4.4.7.3 1.3.7 1.8 1.2s.9 1.1 1.1 1.7c.3.6.4 1.3.4 2 0 .8-.1 1.5-.4 2.1-.3.6-.6 1.2-1.1 1.7-.5.5-1.1.8-1.7 1-1 .4-2.2.5-3.5.2-.3-.1-.6-.2-.8-.3.3.6.6 1.2 1.1 1.7.6.7 1.3 1.2 2 1.7.8.5 1.7.8 2.6 1.1 1.9.5 4.2.5 6.1 0 1-.2 1.9-.6 2.7-1.1.8-.5 1.5-1 2-1.7.4-.5.8-1.1 1.1-1.7-.3.1-.5.2-.8.3-1.3.3-2.5.2-3.5-.2-.6-.2-1.2-.6-1.7-1-.5-.5-.9-1-1.1-1.7-.3-.6-.4-1.4-.4-2.1 0-.7.1-1.3.4-2 .3-.6.6-1.2 1.1-1.7.5-.5 1.1-.9 1.8-1.2.7-.3 1.5-.4 2.4-.4h.8c.1 0 .2 0 .4.1 0-.2.1-.3.1-.5 0-.7-.2-1.2-.6-1.5-.4-.3-1.1-.5-2.2-.5H27l-.1-.1-.3-.6c-.1-.2-.1-.5-.1-.9 0-.6.2-1.1.6-1.3.3-.2.8-.3 1.3-.3h5.4c.6 0 1.1-.3 1.5-.6.3-.4.5-.8.5-1.4 0-.6-.2-1.1-.6-1.4-.4-.3-.9-.5-1.7-.5H21.4l-.1-.1c-.1-.4-.2-.6-.3-.8-.1-.2-.1-.5-.1-.9 0-.6.2-1.1.6-1.3.3-.2.8-.3 1.3-.3h11c1.1 0 2 .1 2.7.4.7.3 1.4.7 1.8 1.1.5.5.8 1 1.1 1.6.2.6.3 1.2.3 1.9 0 1.2-.4 2.3-1.2 3 1.8.8 2.8 2.3 2.8 4.5 0 .5 0 .9-.1 1.3l-.3.9c.5.5.9 1.2 1.2 2 .3.8.5 1.8.5 2.8 0 1.7-.3 3.2-.9 4.7-.3.6-.6 1.2-1 1.8 2.1-2.3 5.1-3.6 8.3-3.6h9.8z"/>
  <path d="M36.6 22.4c-.7 0-1.2.2-1.6.6-.4.4-.6.9-.6 1.5s.2 1.1.6 1.5c.4.4.9.6 1.6.6.6 0 1.1-.2 1.5-.6.4-.4.6-.9.6-1.5s-.2-1.1-.6-1.5c-.4-.4-.9-.6-1.5-.6z"/>
  <path fill="#fff" d="m83.1 66.5-10.8-27c-.1-.1-.2-.3-.3-.4 0 0 0-.1-.1-.2-.1 0-.1-.1-.2-.1-.1-.1-.2-.2-.4-.3h-.7c-.2 0-.3 0-.5.1H70c-.2.1-.3.2-.5.3l-.1.1-.1.2c-.1.1-.2.2-.3.4L58.3 66.5c-.4.9.1 2 1 2.3.2.1.4.1.7.1.7 0 1.4-.4 1.7-1.1l3.1-7.8h11.9l3.1 7.8c.3.7.9 1.1 1.7 1.1.2 0 .5 0 .7-.1.8-.4 1.3-1.4.9-2.3zm-17-10.2L70.6 45l4.5 11.3h-9zM39.4 33.7l1.2-1.5c-.2.2-.4.4-.5.6-.3.3-.5.6-.7.9zm3.1-7.9c0-1-.2-2-.5-2.8-.3-.8-.7-1.4-1.2-2l.3-.9c.1-.4.1-.8.1-1.3 0-2.2-.9-3.7-2.8-4.5.8-.8 1.2-1.8 1.2-3 0-.6-.1-1.3-.3-1.9-.2-.6-.6-1.2-1.1-1.6-.5-.5-1.1-.8-1.8-1.1-.7-.3-1.6-.4-2.7-.4h-11c-.5 0-.9.1-1.3.3-.4.2-.6.7-.6 1.3 0 .3 0 .6.1.9l.3.6.1.1h12.1c.7 0 1.3.2 1.7.5.4.3.6.8.6 1.4 0 .6-.2 1.1-.5 1.4-.3.4-.8.6-1.5.6h-5.4c-.5 0-.9.1-1.3.3-.4.3-.6.7-.6 1.3 0 .4 0 .7.1.9l.3.6.1.1h7.8c1 0 1.8.2 2.2.5.4.3.6.8.6 1.5 0 .2 0 .4-.1.5-.1 0-.2 0-.4-.1h-.8c-.9 0-1.7.1-2.4.4-.7.3-1.3.7-1.8 1.2s-.9 1.1-1.1 1.7c-.3.6-.4 1.3-.4 2 0 .8.1 1.5.4 2.1.3.6.6 1.2 1.1 1.7.5.5 1.1.8 1.7 1 1 .4 2.2.5 3.5.2.3-.1.5-.2.8-.3-.3.6-.6 1.2-1.1 1.7-.6.7-1.3 1.2-2 1.7-.8.5-1.7.8-2.7 1.1-1.9.5-4.2.5-6.1 0-1-.2-1.9-.6-2.6-1.1-.8-.5-1.5-1-2-1.7-.4-.5-.8-1.1-1.1-1.7.3.1.5.2.8.3 1.2.3 2.4.2 3.5-.2.7-.2 1.2-.6 1.7-1 .5-.5.9-1 1.1-1.7.3-.6.4-1.4.4-2.1 0-.7-.1-1.3-.4-2-.3-.6-.6-1.2-1.1-1.7-.5-.5-1.1-.9-1.8-1.2-.7-.3-1.5-.4-2.4-.4H22c-.8 0-1.6.2-2.3.5-.7.3-1.3.7-1.9 1.3-.5.6-.9 1.3-1.2 2.1-.3.8-.5 1.7-.5 2.8 0 1.7.3 3.2.9 4.7.6 1.4 1.5 2.7 2.6 3.7s2.5 1.9 4.1 2.5c1.6.6 3.4.9 5.4.9 2 0 3.8-.3 5.4-.9 1.6-.6 3-1.4 4.1-2.5.2-.1.3-.3.5-.5.2-.3.4-.6.7-.9.2-.2.3-.4.5-.6.4-.6.7-1.1 1-1.8.9-1.2 1.2-2.8 1.2-4.5zm-21.8-2.7c.4-.4.9-.6 1.5-.6.7 0 1.2.2 1.6.6.4.4.6.9.6 1.5s-.2 1.1-.6 1.5c-.4.4-.9.6-1.6.6-.6 0-1.1-.2-1.5-.6-.4-.4-.6-.9-.6-1.5s.2-1.1.6-1.5zm17.4 3c-.4.4-.9.6-1.5.6-.7 0-1.2-.2-1.6-.6-.4-.4-.6-.9-.6-1.5s.2-1.1.6-1.5c.4-.4.9-.6 1.6-.6.6 0 1.1.2 1.5.6.4.4.6.9.6 1.5s-.2 1.1-.6 1.5z"/>
</svg>